<svg xmlns="http://www.w3.org/2000/svg" fill="none" viewBox="0 0 23 22" id="cart"><g clip-path="url(#cart_clip0)" fill="#7D94C2"><path d="M6.26 14.373h12.221c.3 0 .565-.208.648-.51l2.695-9.844a.728.728 0 00-.11-.616.665.665 0 00-.538-.28H4.706L4.225.86a.681.681 0 00-.658-.55H-.476c-.372 0-.674.314-.674.702 0 .389.302.704.674.704h3.502L5.46 13.14a2.117 2.117 0 00-1.218 1.935c0 1.163.906 2.11 2.021 2.11h12.219c.372 0 .674-.316.674-.704 0-.388-.302-.703-.674-.703H6.262c-.371 0-.674-.316-.674-.703 0-.387.302-.702.672-.703zm14.023-9.844l-2.31 8.438H6.803L5.006 4.528h15.277zM5.588 19.295c0 1.163.907 2.109 2.022 2.109 1.114 0 2.021-.946 2.021-2.11 0-1.162-.907-2.109-2.021-2.109-1.115 0-2.022.947-2.022 2.11zm2.022-.704c.371 0 .674.316.674.704 0 .387-.303.703-.674.703-.372 0-.674-.316-.674-.703 0-.388.302-.704.674-.704zM15.112 19.295c0 1.163.907 2.109 2.021 2.109 1.115 0 2.022-.946 2.022-2.11 0-1.162-.907-2.109-2.022-2.109-1.114 0-2.021.947-2.021 2.11zm2.021-.704c.372 0 .674.316.674.704 0 .387-.302.703-.674.703-.371 0-.674-.316-.674-.703 0-.388.303-.704.674-.704z"/></g></svg>