<svg xmlns="http://www.w3.org/2000/svg" fill="none" viewBox="0 0 21 21" id="login"><path d="M1.485 15.096c.62-.62 1.657-1.16 3.292-1.979.824-.412 2.196-1.097 2.529-1.411C5.913 9.994 5.105 8.06 5.105 6.368c0-1.149 0-2.578.642-3.852C6.327 1.368 7.622 0 10.5 0c2.879 0 4.173 1.368 4.752 2.515.644 1.275.644 2.704.644 3.853 0 1.693-.808 3.626-2.201 5.338.333.314 1.705 1 2.529 1.411 1.635.818 2.672 1.359 3.292 1.979 1.373 1.374 1.477 3.679 1.484 4.128A1.75 1.75 0 0119.25 21H1.75A1.751 1.751 0 010 19.223c.007-.448.112-2.753 1.485-4.127zm-.047 4.46c.083.085.194.132.312.132h17.5a.437.437 0 00.438-.444c-.004-.22-.064-2.183-1.1-3.22-.478-.478-1.48-.996-2.951-1.733-1.571-.785-2.443-1.252-2.844-1.632l-.885-.837.769-.945c1.211-1.488 1.907-3.132 1.907-4.51 0-1.061 0-2.264-.503-3.26-.602-1.19-1.806-1.794-3.581-1.794-1.774 0-2.98.603-3.58 1.793-.503.997-.503 2.2-.503 3.262 0 1.376.695 3.02 1.907 4.509l.77.945-.886.837c-.401.38-1.272.847-2.844 1.633-1.472.735-2.473 1.254-2.95 1.733-.844.842-1.09 2.42-1.1 3.219a.438.438 0 00.124.313z" fill="#7D94C2"/></svg>